<svg xmlns="http://www.w3.org/2000/svg" viewBox="0 0 1666.16 723.64"><defs><style>.cls-1{fill:#ff9898;}.cls-2{fill:#a6b1e1;}.cls-3{fill:#d4ecdd;}.cls-4{font-size:276.27px;font-family:Montserrat-Bold, Montserrat;font-weight:700;letter-spacing:0.48em;}.cls-4,.cls-6{fill:#cf455c;}.cls-5{letter-spacing:0.47em;}</style></defs><title>ladenRecurso 3</title><g id="Capa_2" data-name="Capa 2"><g id="Capa_1-2" data-name="Capa 1"><circle class="cls-1" cx="87.43" cy="87.43" r="87.43"/><circle class="cls-2" cx="414.8" cy="87.43" r="87.43"/><circle class="cls-3" cx="740.94" cy="87.43" r="87.43"/><text class="cls-4" transform="translate(0 476.56)">L<tspan class="cls-5" x="298.37" y="0">ADEN</tspan></text><path class="cls-6" d="M78.52,723.64,65.87,691H24.67L12.09,723.64H0L40.21,620.45H51L90.9,723.64ZM62.28,680.41,50.26,648c-.28-.84-.74-2.22-1.37-4.14s-1.28-3.92-1.93-6-1.2-3.73-1.62-5q-.71,2.88-1.51,5.73c-.54,1.9-1.07,3.65-1.58,5.27s-1,3-1.34,4.11L28.68,680.41Z"/><path class="cls-6" d="M225.44,671.27q0,17.37-6.33,29a40.65,40.65,0,0,1-18.31,17.5q-12,5.88-29.07,5.87H143.82V620.87h31q15.67,0,27,5.73a40.3,40.3,0,0,1,17.47,16.94Q225.44,654.76,225.44,671.27Zm-12.58.42q0-13.85-4.61-22.84a29.54,29.54,0,0,0-13.5-13.4q-8.88-4.38-21.75-4.39H155.77v82.32h14.56q21.22,0,31.88-10.47T212.86,671.69Z"/><path class="cls-6" d="M332.22,723.64l-34.52-91h-.56c.18,1.92.35,4.26.49,7s.26,5.77.35,9,.14,6.57.14,10v64.95H287V620.87h17.71l32.55,85.48h.49l33-85.48h17.58V723.64H376.58V657.85c0-3.05,0-6.11.14-9.18s.21-6,.35-8.72.28-5.12.42-7.13h-.56L342,723.64Z"/><path class="cls-6" d="M455.23,723.64V620.87h11.95V723.64Z"/><path class="cls-6" d="M614.52,723.64H600.74l-56-86.32h-.57c.14,2.29.31,4.91.5,7.84s.33,6,.45,9.35.18,6.66.18,10.08v59H534.17V620.87h13.71l55.82,86h.49c-.1-1.64-.21-4-.35-7s-.27-6.28-.39-9.77-.18-6.74-.18-9.74V620.87h11.25Z"/></g></g></svg>