<svg xmlns="http://www.w3.org/2000/svg" viewBox="0 0 1666.16 723.64"><defs><style>.cls-1{fill:#ff9898;}.cls-2{fill:#a6b1e1;}.cls-3{fill:#d4ecdd;}.cls-4{font-size:276.27px;font-family:Montserrat-Bold, Montserrat;font-weight:700;letter-spacing:0.48em;}.cls-5{letter-spacing:0.47em;}</style></defs><title>Laden Recurso 5</title><g id="Capa_2" data-name="Capa 2"><g id="Capa_1-2" data-name="Capa 1"><circle class="cls-1" cx="87.43" cy="87.43" r="87.43"/><circle class="cls-2" cx="414.8" cy="87.43" r="87.43"/><circle class="cls-3" cx="740.94" cy="87.43" r="87.43"/><text class="cls-4" transform="translate(0 476.56)">L<tspan class="cls-5" x="298.37" y="0">ADEN</tspan></text><path d="M45.62,723.64h-12V631.41H1.27V620.87H77.82v10.54H45.62Z"/><path d="M132.08,723.64V620.87H144V723.64Z"/><path d="M268.25,723.64H211V620.87h57.23v10.54H223v33.25h42.67v10.41H223v38h45.28Z"/><path d="M410.1,723.64H396.32l-56-86.32h-.57q.21,3.45.5,7.84c.18,2.93.33,6,.45,9.35s.18,6.66.18,10.08v59H329.75V620.87h13.71l55.82,86h.49c-.1-1.64-.21-4-.35-7s-.27-6.28-.39-9.77-.18-6.74-.18-9.74V620.87H410.1Z"/><path d="M558.49,671.27q0,17.37-6.32,29a40.67,40.67,0,0,1-18.32,17.5q-12,5.88-29.06,5.87H476.88V620.87h31q15.68,0,27,5.73a40.25,40.25,0,0,1,17.47,16.94Q558.49,654.76,558.49,671.27Zm-12.58.42q0-13.85-4.6-22.84a29.54,29.54,0,0,0-13.5-13.4q-8.89-4.38-21.76-4.39H488.83v82.32h14.55q21.23,0,31.88-10.47T545.91,671.69Z"/><path d="M684.53,723.64,671.88,691H630.69L618.1,723.64H606l40.21-103.19H657l39.93,103.19Zm-16.24-43.23-12-32.41c-.28-.84-.73-2.22-1.37-4.14s-1.27-3.92-1.93-6-1.2-3.72-1.62-5q-.71,2.88-1.51,5.73c-.54,1.9-1.07,3.65-1.58,5.27s-1,3-1.34,4.11l-12.23,32.41Z"/></g></g></svg>